<svg width="187" height="31" viewBox="0 0 187 31" fill="none" xmlns="http://www.w3.org/2000/svg">
<path d="M53.5947 3.09897H59.3067C60.1547 3.09897 60.9467 3.18697 61.6827 3.36297C62.4347 3.52297 63.0827 3.80297 63.6267 4.20297C64.1867 4.58697 64.6267 5.10697 64.9467 5.76297C65.2667 6.40297 65.4267 7.19497 65.4267 8.13897C65.4267 9.05097 65.2587 9.84297 64.9227 10.515C64.6027 11.187 64.1627 11.739 63.6027 12.171C63.0427 12.603 62.3947 12.923 61.6587 13.131C60.9227 13.339 60.1387 13.443 59.3067 13.443H57.1227V18.747H53.5947V3.09897ZM59.0907 10.635C61.0107 10.635 61.9707 9.80297 61.9707 8.13897C61.9707 7.32297 61.7227 6.74697 61.2267 6.41097C60.7467 6.07497 60.0347 5.90697 59.0907 5.90697H57.1227V10.635H59.0907Z" fill="#E7244E"/>
<path d="M67.8614 6.84297H70.7414L70.9814 8.93097H71.0774C71.5094 8.11497 72.0294 7.51497 72.6374 7.13097C73.2454 6.74697 73.8534 6.55497 74.4614 6.55497C74.7974 6.55497 75.0694 6.57897 75.2774 6.62697C75.5014 6.65897 75.7014 6.71497 75.8774 6.79497L75.3014 9.84297C75.0774 9.77897 74.8694 9.73097 74.6774 9.69897C74.4854 9.66697 74.2614 9.65097 74.0054 9.65097C73.5574 9.65097 73.0854 9.81097 72.5894 10.131C72.1094 10.451 71.7094 11.019 71.3894 11.835V18.747H67.8614V6.84297Z" fill="#E7244E"/>
<path d="M76.4935 12.795C76.4935 11.803 76.6535 10.923 76.9735 10.155C77.2935 9.37097 77.7175 8.71497 78.2455 8.18697C78.7895 7.65897 79.4135 7.25897 80.1175 6.98697C80.8215 6.69897 81.5495 6.55497 82.3015 6.55497C83.0535 6.55497 83.7735 6.69897 84.4615 6.98697C85.1655 7.25897 85.7815 7.65897 86.3095 8.18697C86.8535 8.71497 87.2855 9.37097 87.6055 10.155C87.9255 10.923 88.0855 11.803 88.0855 12.795C88.0855 13.787 87.9255 14.675 87.6055 15.459C87.2855 16.227 86.8535 16.875 86.3095 17.403C85.7815 17.931 85.1655 18.339 84.4615 18.627C83.7735 18.899 83.0535 19.035 82.3015 19.035C81.5495 19.035 80.8215 18.899 80.1175 18.627C79.4135 18.339 78.7895 17.931 78.2455 17.403C77.7175 16.875 77.2935 16.227 76.9735 15.459C76.6535 14.675 76.4935 13.787 76.4935 12.795ZM80.1175 12.795C80.1175 13.835 80.2935 14.659 80.6455 15.267C81.0135 15.875 81.5655 16.179 82.3015 16.179C83.0215 16.179 83.5655 15.875 83.9335 15.267C84.3015 14.659 84.4855 13.835 84.4855 12.795C84.4855 11.755 84.3015 10.931 83.9335 10.323C83.5655 9.71497 83.0215 9.41097 82.3015 9.41097C81.5655 9.41097 81.0135 9.71497 80.6455 10.323C80.2935 10.931 80.1175 11.755 80.1175 12.795Z" fill="#E7244E"/>
<path d="M89.878 12.795C89.878 11.819 90.014 10.947 90.286 10.179C90.574 9.41097 90.942 8.76297 91.39 8.23497C91.854 7.69097 92.382 7.27497 92.974 6.98697C93.582 6.69897 94.198 6.55497 94.822 6.55497C95.494 6.55497 96.046 6.66697 96.478 6.89097C96.91 7.11497 97.334 7.41897 97.75 7.80297L97.606 5.97897V1.92297H101.134V18.747H98.254L98.014 17.571H97.918C97.502 17.987 97.014 18.339 96.454 18.627C95.894 18.899 95.326 19.035 94.75 19.035C94.014 19.035 93.342 18.891 92.734 18.603C92.142 18.315 91.63 17.907 91.198 17.379C90.782 16.835 90.454 16.179 90.214 15.411C89.99 14.643 89.878 13.771 89.878 12.795ZM93.502 12.747C93.502 13.931 93.686 14.795 94.054 15.339C94.438 15.883 94.974 16.155 95.662 16.155C96.046 16.155 96.39 16.075 96.694 15.915C97.014 15.755 97.318 15.475 97.606 15.075V10.203C97.286 9.91497 96.958 9.71497 96.622 9.60297C96.286 9.49097 95.958 9.43497 95.638 9.43497C95.078 9.43497 94.582 9.70697 94.15 10.251C93.718 10.779 93.502 11.611 93.502 12.747Z" fill="#E7244E"/>
<path d="M104.14 6.84297H107.668V13.779C107.668 14.643 107.788 15.235 108.028 15.555C108.268 15.875 108.644 16.035 109.156 16.035C109.604 16.035 109.98 15.931 110.284 15.723C110.588 15.515 110.916 15.179 111.268 14.715V6.84297H114.796V18.747H111.916L111.652 17.091H111.58C111.068 17.699 110.516 18.179 109.924 18.531C109.348 18.867 108.652 19.035 107.836 19.035C106.54 19.035 105.596 18.611 105.004 17.763C104.428 16.915 104.14 15.739 104.14 14.235V6.84297Z" fill="#E7244E"/>
<path d="M117.204 12.795C117.204 11.803 117.372 10.923 117.708 10.155C118.044 9.37097 118.492 8.71497 119.052 8.18697C119.628 7.65897 120.292 7.25897 121.044 6.98697C121.796 6.69897 122.58 6.55497 123.396 6.55497C124.132 6.55497 124.796 6.68297 125.388 6.93897C125.98 7.17897 126.476 7.50697 126.876 7.92297L125.268 10.107C124.708 9.64297 124.156 9.41097 123.612 9.41097C122.748 9.41097 122.068 9.71497 121.572 10.323C121.076 10.931 120.828 11.755 120.828 12.795C120.828 13.835 121.076 14.659 121.572 15.267C122.084 15.875 122.724 16.179 123.492 16.179C123.924 16.179 124.316 16.091 124.668 15.915C125.02 15.739 125.34 15.539 125.628 15.315L127.044 17.547C126.468 18.059 125.828 18.435 125.124 18.675C124.42 18.915 123.74 19.035 123.084 19.035C122.252 19.035 121.476 18.899 120.756 18.627C120.052 18.339 119.436 17.931 118.908 17.403C118.38 16.875 117.964 16.227 117.66 15.459C117.356 14.675 117.204 13.787 117.204 12.795Z" fill="#E7244E"/>
<path d="M129.584 9.60297H127.952V6.98697L129.776 6.84297L130.184 3.67497H133.112V6.84297H135.968V9.60297H133.112V14.379C133.112 15.051 133.248 15.539 133.52 15.843C133.808 16.131 134.184 16.275 134.648 16.275C134.84 16.275 135.032 16.251 135.224 16.203C135.432 16.155 135.616 16.099 135.776 16.035L136.328 18.603C136.008 18.699 135.632 18.795 135.2 18.891C134.768 18.987 134.264 19.035 133.688 19.035C132.952 19.035 132.32 18.923 131.792 18.699C131.28 18.475 130.856 18.163 130.52 17.763C130.2 17.363 129.96 16.883 129.8 16.323C129.656 15.747 129.584 15.115 129.584 14.427V9.60297Z" fill="#E7244E"/>
<path d="M138.253 3.25305H141.781V15.9251H147.973V18.9011H138.253V3.25305Z" fill="#FDC62D"/>
<path d="M149.363 12.9491C149.363 11.9571 149.523 11.0771 149.843 10.3091C150.163 9.52505 150.587 8.86905 151.115 8.34105C151.659 7.81305 152.283 7.41305 152.987 7.14105C153.691 6.85305 154.419 6.70905 155.171 6.70905C155.923 6.70905 156.643 6.85305 157.331 7.14105C158.035 7.41305 158.651 7.81305 159.179 8.34105C159.723 8.86905 160.155 9.52505 160.475 10.3091C160.795 11.0771 160.955 11.9571 160.955 12.9491C160.955 13.9411 160.795 14.8291 160.475 15.6131C160.155 16.3811 159.723 17.0291 159.179 17.5571C158.651 18.0851 158.035 18.4931 157.331 18.7811C156.643 19.0531 155.923 19.1891 155.171 19.1891C154.419 19.1891 153.691 19.0531 152.987 18.7811C152.283 18.4931 151.659 18.0851 151.115 17.5571C150.587 17.0291 150.163 16.3811 149.843 15.6131C149.523 14.8291 149.363 13.9411 149.363 12.9491ZM152.987 12.9491C152.987 13.9891 153.163 14.8131 153.515 15.4211C153.883 16.0291 154.435 16.3331 155.171 16.3331C155.891 16.3331 156.435 16.0291 156.803 15.4211C157.171 14.8131 157.355 13.9891 157.355 12.9491C157.355 11.9091 157.171 11.0851 156.803 10.4771C156.435 9.86905 155.891 9.56505 155.171 9.56505C154.435 9.56505 153.883 9.86905 153.515 10.4771C153.163 11.0851 152.987 11.9091 152.987 12.9491Z" fill="#FDC62D"/>
<path d="M165.531 20.3891C165.531 20.8371 165.771 21.1731 166.251 21.3971C166.731 21.6371 167.371 21.7571 168.171 21.7571C168.971 21.7571 169.627 21.6131 170.139 21.3251C170.651 21.0531 170.907 20.7091 170.907 20.2931C170.907 19.9251 170.747 19.6771 170.427 19.5491C170.123 19.4211 169.675 19.3571 169.083 19.3571H167.859C167.443 19.3571 167.107 19.3411 166.851 19.3091C166.595 19.2931 166.371 19.2611 166.179 19.2131C165.747 19.5971 165.531 19.9891 165.531 20.3891ZM162.627 20.9411C162.627 19.9811 163.195 19.1811 164.331 18.5411V18.4451C164.011 18.2371 163.747 17.9731 163.539 17.6531C163.331 17.3331 163.227 16.9251 163.227 16.4291C163.227 15.9971 163.355 15.5891 163.611 15.2051C163.867 14.8051 164.187 14.4691 164.571 14.1971V14.1011C164.155 13.8131 163.779 13.4051 163.443 12.8771C163.123 12.3331 162.963 11.7091 162.963 11.0051C162.963 10.2851 163.099 9.66105 163.371 9.13305C163.643 8.58905 164.003 8.14105 164.451 7.78905C164.915 7.42105 165.443 7.14905 166.035 6.97305C166.627 6.79705 167.243 6.70905 167.883 6.70905C168.587 6.70905 169.203 6.80505 169.731 6.99705H174.075V9.56505H172.179C172.291 9.74105 172.379 9.96505 172.443 10.2371C172.523 10.5091 172.563 10.8051 172.563 11.1251C172.563 11.8131 172.443 12.4131 172.203 12.9251C171.963 13.4211 171.627 13.8371 171.195 14.1731C170.779 14.4931 170.283 14.7331 169.707 14.8931C169.147 15.0531 168.539 15.1331 167.883 15.1331C167.419 15.1331 166.939 15.0531 166.443 14.8931C166.283 15.0211 166.171 15.1491 166.107 15.2771C166.043 15.4051 166.011 15.5731 166.011 15.7811C166.011 16.0851 166.139 16.3091 166.395 16.4531C166.667 16.5971 167.139 16.6691 167.811 16.6691H169.731C171.203 16.6691 172.323 16.9091 173.091 17.3891C173.875 17.8531 174.267 18.6211 174.267 19.6931C174.267 20.3171 174.107 20.8851 173.787 21.3971C173.483 21.9251 173.043 22.3731 172.467 22.7411C171.891 23.1251 171.195 23.4211 170.379 23.6291C169.563 23.8531 168.643 23.9651 167.619 23.9651C166.915 23.9651 166.259 23.9011 165.651 23.7731C165.059 23.6611 164.531 23.4851 164.067 23.2451C163.619 23.0051 163.267 22.6931 163.011 22.3091C162.755 21.9251 162.627 21.4691 162.627 20.9411ZM167.883 12.9971C168.347 12.9971 168.731 12.8371 169.035 12.5171C169.355 12.1811 169.515 11.6771 169.515 11.0051C169.515 10.3811 169.355 9.90905 169.035 9.58905C168.731 9.25305 168.347 9.08505 167.883 9.08505C167.419 9.08505 167.027 9.24505 166.707 9.56505C166.403 9.88505 166.251 10.3651 166.251 11.0051C166.251 11.6771 166.403 12.1811 166.707 12.5171C167.027 12.8371 167.419 12.9971 167.883 12.9971Z" fill="#FDC62D"/>
<path d="M175.074 12.9491C175.074 11.9571 175.234 11.0771 175.554 10.3091C175.874 9.52505 176.298 8.86905 176.826 8.34105C177.37 7.81305 177.994 7.41305 178.698 7.14105C179.402 6.85305 180.13 6.70905 180.882 6.70905C181.634 6.70905 182.354 6.85305 183.042 7.14105C183.746 7.41305 184.362 7.81305 184.89 8.34105C185.434 8.86905 185.866 9.52505 186.186 10.3091C186.506 11.0771 186.666 11.9571 186.666 12.9491C186.666 13.9411 186.506 14.8291 186.186 15.6131C185.866 16.3811 185.434 17.0291 184.89 17.5571C184.362 18.0851 183.746 18.4931 183.042 18.7811C182.354 19.0531 181.634 19.1891 180.882 19.1891C180.13 19.1891 179.402 19.0531 178.698 18.7811C177.994 18.4931 177.37 18.0851 176.826 17.5571C176.298 17.0291 175.874 16.3811 175.554 15.6131C175.234 14.8291 175.074 13.9411 175.074 12.9491ZM178.698 12.9491C178.698 13.9891 178.874 14.8131 179.226 15.4211C179.594 16.0291 180.146 16.3331 180.882 16.3331C181.602 16.3331 182.146 16.0291 182.514 15.4211C182.882 14.8131 183.066 13.9891 183.066 12.9491C183.066 11.9091 182.882 11.0851 182.514 10.4771C182.146 9.86905 181.602 9.56505 180.882 9.56505C180.146 9.56505 179.594 9.86905 179.226 10.4771C178.874 11.0851 178.698 11.9091 178.698 12.9491Z" fill="#FDC62D"/>
<path fill-rule="evenodd" clip-rule="evenodd" d="M21.1572 24.1669C21.7159 23.7291 22.2489 23.2571 22.7529 22.7531C24.3944 21.1115 25.6965 19.1628 26.5849 17.018C26.6923 16.7587 26.7934 16.4971 26.8882 16.2335C27.1396 16.1649 27.387 16.0804 27.6288 15.9803C28.3801 15.6691 29.0627 15.2129 29.6377 14.6379C30.2128 14.0629 30.6689 13.3802 30.9801 12.6289C31.2913 11.8776 31.4515 11.0724 31.4515 10.2592C31.4515 9.44594 31.2913 8.64069 30.9801 7.88938C30.6689 7.13807 30.2128 6.45542 29.6377 5.88039L35.512 0.00610352C36.8585 1.35255 37.9265 2.95102 38.6552 4.71024C39.3839 6.46946 39.759 8.35498 39.759 10.2592C39.759 12.1633 39.3839 14.0488 38.6552 15.8081C37.9265 17.5673 36.8585 19.1658 35.512 20.5122C34.1656 21.8587 32.5671 22.9267 30.8079 23.6554C29.0487 24.3841 27.1631 24.7592 25.259 24.7592C23.8678 24.7592 22.4865 24.559 21.1572 24.1669Z" fill="url(#paint0_linear)"/>
<path d="M0.000132214 20.5061C1.34658 21.8526 2.94505 22.9206 4.70427 23.6493C6.46349 24.378 8.34901 24.7531 10.2532 24.7531C12.1573 24.7531 14.0429 24.378 15.8021 23.6493C17.5613 22.9206 19.1598 21.8525 20.5062 20.5061C21.8527 19.1597 22.9207 17.5612 23.6494 15.802C24.3781 14.0427 24.7532 12.1572 24.7532 10.2531C24.7532 8.34888 24.3781 6.46336 23.6494 4.70414C22.9207 2.94492 21.8527 1.34645 20.5062 3.60608e-06L14.6319 5.87429C15.207 6.44932 15.6631 7.13197 15.9743 7.88328C16.2855 8.63459 16.4457 9.43984 16.4457 10.2531C16.4457 11.0663 16.2855 11.8715 15.9743 12.6228C15.6631 13.3741 15.207 14.0568 14.6319 14.6318C14.0569 15.2068 13.3743 15.663 12.623 15.9742C11.8716 16.2854 11.0664 16.4456 10.2532 16.4456C9.43997 16.4456 8.63472 16.2854 7.88341 15.9742C7.1321 15.663 6.44944 15.2068 5.87442 14.6318L0.000132214 20.5061Z" fill="url(#paint1_radial)"/>
<defs>
<linearGradient id="paint0_linear" x1="21.1572" y1="9.84175" x2="38.161" y2="9.56396" gradientUnits="userSpaceOnUse">
<stop stop-color="#FDBA2B"/>
<stop offset="1" stop-color="#FDD730"/>
</linearGradient>
<radialGradient id="paint1_radial" cx="0" cy="0" r="1" gradientUnits="userSpaceOnUse" gradientTransform="translate(10.3185 30.6938) rotate(-73.0633) scale(25.1189 85.1653)">
<stop stop-color="#FA2946"/>
<stop offset="1" stop-color="#CC1C58"/>
</radialGradient>
</defs>
</svg>
