<svg width="50" height="50" viewBox="0 0 50 50" fill="none" xmlns="http://www.w3.org/2000/svg">
<rect width="50" height="50" rx="12" fill="url(#paint0_linear)"/>
<path d="M33.8494 26.6453L35.8471 27.7984C36.0752 27.93 36.1811 28.2023 36.103 28.4539C35.584 30.1246 34.6981 31.634 33.5394 32.8876C33.4527 32.9815 33.3366 33.0431 33.2103 33.0623C33.084 33.0815 32.9548 33.0571 32.8442 32.9933L30.848 31.8404C30.0082 32.56 29.0426 33.1183 28 33.4871V35.7925C28 35.9204 27.9564 36.0444 27.8765 36.1443C27.7967 36.2441 27.6852 36.3138 27.5604 36.3418C25.9218 36.7098 24.162 36.7288 22.4408 36.3421C22.1834 36.2843 22 36.0564 22 35.7926V33.4871C20.9573 33.1183 19.9918 32.56 19.1519 31.8404L17.1558 32.9933C17.0451 33.0571 16.916 33.0815 16.7897 33.0623C16.6633 33.0431 16.5473 32.9815 16.4605 32.8876C15.3019 31.634 14.4159 30.1246 13.897 28.4539C13.8189 28.2024 13.9247 27.9301 14.1529 27.7984L16.1506 26.6453C15.9499 25.5576 15.9499 24.4424 16.1506 23.3547L14.1529 22.2016C13.9248 22.07 13.8189 21.7977 13.897 21.5461C14.416 19.8754 15.3019 18.366 16.4606 17.1124C16.5473 17.0185 16.6634 16.9569 16.7897 16.9377C16.916 16.9185 17.0452 16.9428 17.1558 17.0067L19.152 18.1596C19.9918 17.44 20.9574 16.8817 22 16.5129V14.2074C22 14.0796 22.0436 13.9555 22.1235 13.8557C22.2033 13.7558 22.3148 13.6862 22.4396 13.6581C24.0782 13.2902 25.838 13.2711 27.5592 13.6578C27.8166 13.7156 28 13.9436 28 14.2073V16.5128C29.0427 16.8816 30.0082 17.4399 30.8481 18.1595L32.8442 17.0067C32.9549 16.9428 33.084 16.9185 33.2103 16.9377C33.3367 16.9569 33.4527 17.0184 33.5395 17.1123C34.6981 18.3659 35.5841 19.8753 36.103 21.546C36.1811 21.7976 36.0753 22.0699 35.8471 22.2016L33.8494 23.3547C34.0501 24.4424 34.0501 25.5576 33.8494 26.6453ZM28.75 25C28.75 22.9322 27.0677 21.25 25 21.25C22.9323 21.25 21.25 22.9322 21.25 25C21.25 27.0677 22.9323 28.75 25 28.75C27.0677 28.75 28.75 27.0677 28.75 25Z" fill="white"/>
<defs>
<linearGradient id="paint0_linear" x1="-4.97978e-07" y1="19.8676" x2="45.6954" y2="18.8742" gradientUnits="userSpaceOnUse">
<stop stop-color="#FDBA2B"/>
<stop offset="1" stop-color="#FDD730"/>
</linearGradient>
</defs>
</svg>
