<svg width="16" height="18" viewBox="0 0 16 18" fill="none" xmlns="http://www.w3.org/2000/svg">
<g clip-path="url(#clip0)">
<path d="M12.196 10.0738L9.89066 12.3792V1.96875C9.89066 1.50275 9.5129 1.125 9.04691 1.125H8.20316C7.73716 1.125 7.35941 1.50275 7.35941 1.96875V12.3792L5.0541 10.0738C4.72458 9.74429 4.19035 9.74429 3.86087 10.0738L3.26423 10.6705C2.93471 11 2.93471 11.5342 3.26423 11.8637L8.02843 16.6279C8.35795 16.9574 8.89215 16.9574 9.22167 16.6279L13.9859 11.8637C14.3154 11.5342 14.3154 10.9999 13.9859 10.6705L13.3892 10.0738C13.0597 9.74429 12.5255 9.74429 12.196 10.0738Z" fill="#FCBD2D"/>
</g>
<defs>
<clipPath id="clip0">
<rect width="11.25" height="18" fill="white" transform="translate(3)"/>
</clipPath>
</defs>
</svg>
